C:UsersJoelDesktopCaratulasAudiosLondres Distrito Criminal [1x01] [HDTV + H.264 + AC3 + Spanish].mkv
   General
      Complete name : C:UsersJoelDesktopCaratulasAudiosLondres Distrito Criminal [1x01] [HDTV + H.264 + AC3 + Spanish].mkv
      Format : Matroska
      File size : 395 MiB
      Duration : 45mn 19s
      Overall bit rate : 1 219 Kbps
      Encoded date : UTC 2010-05-21 11:13:19
      Writing application : VirtualDubMod 1.5.10.2 (build 2540/release)
      Writing library : libebml-0.7.5 & libmatroska-0.7.7
   Video #1
      ID : 1
      Format : AVC
      Format/Info : Advanced Video Codec
      Format profile : High@L3.0
      Format settings, CABAC : Yes
      Format settings, ReFrames : 1 frame
      Codec ID : H264
      Duration : 45mn 19s
      Bit rate : 747 Kbps
      Nominal bit rate : 771 Kbps
      Width : 624 pixels
      Height : 352 pixels
      Display aspect ratio : 16:9
      Original display aspect ratio : 16:9
      Frame rate : 25.000 fps
      Resolution : 24 bits
      Colorimetry : 4:2:0
      Scan type : Progressive
      Bits/(Pixel*Frame) : 0.136
      Stream size : 242 MiB (61%)
      Writing library : x264 core 68 r1195bm 5d75a9b
      Encoding settings : cabac=1 / ref=1 / deblock=1:0:0 / analyse=0x3:0x33 / me=umh / subme=7 / psy_rd=0.0:0.0 / mixed_ref=0 / me_range=16 / chroma_me=1 / trellis=1 / 8x8dct=1 / cqm=0 / deadzone=21,11 / chroma_qp_offset=0 / threads=1 / thread_queue=1 / nr=0 / decimate=1 / mbaff=0 / bframes=0 / keyint=250 / keyint_min=25 / scenecut=40 / rc=abr / bitrate=771 / ratetol=1.0 / qcomp=0.60 / qpmin=10 / qpmax=51 / qpstep=4 / ip_ratio=1.40 / aq=2:1.00
   Audio #2
      ID : 2
      Format : AC-3
      Format/Info : Audio Coding 3
      Codec ID : A_AC3
      Duration : 45mn 19s
      Bit rate mode : Constant
      Bit rate : 448 Kbps
      Channel(s) : 2 channels
      Channel positions : L R
      Sampling rate : 48.0 KHz
      Stream size : 145 MiB (37%)